<svg xmlns="http://www.w3.org/2000/svg" viewBox="0 0 100 100" fill="none">
  <defs>
    <linearGradient id="questGrad" x1="0%" y1="0%" x2="100%" y2="100%">
      <stop offset="0%" style="stop-color:#8b5cf6;stop-opacity:1" />
      <stop offset="100%" style="stop-color:#7c3aed;stop-opacity:1" />
    </linearGradient>
  </defs>
  
  <!-- Background circle -->
  <circle cx="50" cy="50" r="45" fill="url(#questGrad)" opacity="0.1"/>
  
  <!-- Quest book -->
  <rect x="25" y="20" width="50" height="60" fill="url(#questGrad)" opacity="0.4" rx="3"/>
  <rect x="27" y="22" width="46" height="56" fill="#f8fafc" opacity="0.9" rx="2"/>
  
  <!-- Book binding -->
  <rect x="25" y="20" width="6" height="60" fill="url(#questGrad)" opacity="0.7" rx="3"/>
  
  <!-- Quest text lines -->
  <rect x="35" y="30" width="30" height="2" fill="url(#questGrad)" opacity="0.6" rx="1"/>
  <rect x="35" y="36" width="25" height="2" fill="url(#questGrad)" opacity="0.5" rx="1"/>
  <rect x="35" y="42" width="28" height="2" fill="url(#questGrad)" opacity="0.6" rx="1"/>
  
  <!-- Quest objective checkboxes -->
  <rect x="35" y="50" width="4" height="4" fill="none" stroke="#8b5cf6" stroke-width="1" opacity="0.7"/>
  <rect x="35" y="58" width="4" height="4" fill="none" stroke="#8b5cf6" stroke-width="1" opacity="0.7"/>
  <rect x="35" y="66" width="4" height="4" fill="none" stroke="#8b5cf6" stroke-width="1" opacity="0.7"/>
  
  <!-- Checkmark in first box -->
  <path d="M36 52 L37.5 53.5 L41 50" stroke="#22c55e" stroke-width="1.5" fill="none" opacity="0.8"/>
  
  <!-- Quest text after checkboxes -->
  <rect x="42" y="51" width="20" height="1.5" fill="url(#questGrad)" opacity="0.4" rx="0.5"/>
  <rect x="42" y="59" width="18" height="1.5" fill="url(#questGrad)" opacity="0.4" rx="0.5"/>
  <rect x="42" y="67" width="22" height="1.5" fill="url(#questGrad)" opacity="0.4" rx="0.5"/>
  
  <!-- Quest star/reward icon -->
  <path d="M60 35 L62 40 L67 40 L63 43 L65 48 L60 45 L55 48 L57 43 L53 40 L58 40 Z" fill="#fbbf24" opacity="0.8"/>
</svg> 